<svg width="24" height="24" viewBox="0 0 24 24" fill="none" xmlns="http://www.w3.org/2000/svg">
<path d="M10.8689 22.4971C10.7041 22.3353 10.5771 22.1403 10.4964 21.9256C10.3019 21.408 10.4212 20.9997 9.86824 20.9997H2.00073L1.99319 16.9747C3.06155 15.8543 4.06083 15.0965 5.50073 14.4997C6.94062 13.9028 8.3039 13.9698 9.86646 13.9997C10.1532 13.9997 10.3875 13.7442 10.3979 13.4577C10.4076 13.1872 10.435 12.9027 10.4797 12.7718C10.5828 12.4698 10.4172 12.0334 10.0985 12.0202C10.0193 12.0169 9.94166 12.0148 9.86646 12.0148C8.02778 11.9719 5.68015 12.2651 4 13C2.47679 13.6662 1.4122 14.4631 0.334156 15.6277C0.115176 15.8643 0 16.1773 0 16.4997L0.000728603 21.2534C0.000728603 21.6461 0.15954 22.0227 0.442227 22.3003C0.724914 22.578 1.10832 22.734 1.5081 22.734H10.7626C10.8855 22.734 10.9506 22.5888 10.8689 22.4971Z" fill="#6C6C6C"/>
<path d="M23.9761 16.4208C23.9337 16.3297 23.8287 16.2937 23.7325 16.2649L22.9087 16.0181C22.5727 15.9175 22.3169 15.6516 22.1817 15.3279C22.0444 14.9994 22.0366 14.6239 22.2075 14.3116L22.6867 13.4361C22.7113 13.381 22.7172 13.3197 22.7036 13.2611C22.6901 13.2025 22.6577 13.1496 22.6114 13.1104L21.5185 12.037C21.4772 11.993 21.422 11.964 21.3619 11.9546C21.3017 11.9452 21.2401 11.956 21.1869 11.9852L20.3211 12.4474C19.9963 12.6207 19.6091 12.6102 19.2694 12.4682C18.9348 12.3284 18.6578 12.0659 18.5502 11.7196L18.2626 10.7933C18.2431 10.7388 18.2061 10.692 18.1572 10.66C18.1082 10.6279 18.05 10.6124 17.9913 10.6157H16.4462C16.3869 10.615 16.3289 10.6334 16.2813 10.6682C16.2337 10.703 16.1989 10.7521 16.1824 10.8081L15.8967 11.7284C15.7881 12.078 15.507 12.3421 15.1682 12.4807C14.8285 12.6196 14.4426 12.6277 14.1196 12.4534L13.2657 11.9926C13.2137 11.964 13.1533 11.9535 13.0944 11.9629C13.0356 11.9723 12.9817 12.001 12.9416 12.0444L11.8261 13.1104C11.7848 13.1532 11.7582 13.2076 11.7501 13.2661C11.7419 13.3245 11.7527 13.384 11.7809 13.4361L12.2393 14.2555C12.422 14.5821 12.4081 14.9785 12.2566 15.3207C12.1154 15.6396 11.8591 15.9011 11.5247 15.9997L10.5524 16.2862C10.4954 16.3024 10.4454 16.3365 10.41 16.3833C10.3746 16.4301 10.3558 16.487 10.3565 16.5453V18.0628C10.3609 18.1163 10.3822 18.1671 10.4173 18.2082C10.4524 18.2493 10.4996 18.2787 10.5524 18.2923L11.5227 18.583C11.8583 18.6835 12.1144 18.9478 12.253 19.2694C12.3958 19.6005 12.4091 19.9807 12.2395 20.2988L11.7583 21.2016C11.7296 21.2522 11.7184 21.3107 11.7266 21.3682C11.7347 21.4256 11.7618 21.4789 11.8035 21.5199L12.8964 22.5933C12.9391 22.6351 12.9941 22.6626 13.0536 22.672C13.1132 22.6813 13.1742 22.6719 13.228 22.6451L14.1424 22.1649C14.4521 22.0021 14.8193 22.0096 15.144 22.1401C15.4789 22.2748 15.7563 22.5356 15.8618 22.8809L16.1448 23.8073C16.1633 23.8621 16.1986 23.91 16.2458 23.9444C16.293 23.9789 16.3498 23.9982 16.4086 23.9998H17.9536C18.0127 23.9993 18.07 23.9804 18.1174 23.9458C18.1648 23.9112 18.1998 23.8627 18.2174 23.8073L18.5116 22.8364C18.6148 22.4956 18.8871 22.2372 19.2169 22.1028C19.5376 21.9721 19.901 21.9633 20.2083 22.123L21.1417 22.6081C21.1941 22.6354 21.2541 22.6452 21.3126 22.6358C21.3712 22.6265 21.4249 22.5985 21.4658 22.5563L22.4928 21.6538C22.5716 21.5845 22.6587 21.5064 22.6587 21.4015C22.6587 21.3485 22.6422 21.2968 22.6114 21.2534L22.1276 20.36C21.9596 20.0498 21.9696 19.6776 22.1071 19.3527C22.2418 19.0345 22.494 18.773 22.8251 18.6739L23.8022 18.3811C23.8592 18.3649 23.9093 18.3308 23.9447 18.284C23.9801 18.2372 23.9988 18.1803 23.9982 18.122V16.5675C24.0051 16.5175 23.9974 16.4666 23.9761 16.4208ZM17.2225 19.7729C16.724 19.7743 16.2363 19.6304 15.8212 19.3592C15.406 19.0881 15.0822 18.702 14.8908 18.25C14.6993 17.7979 14.6488 17.3001 14.7457 16.8198C14.8426 16.3395 15.0825 15.8983 15.435 15.552C15.7875 15.2058 16.2367 14.9701 16.7258 14.875C17.2148 14.7798 17.7215 14.8294 18.1818 15.0175C18.6421 15.2055 19.0352 15.5236 19.3112 15.9313C19.5872 16.339 19.7338 16.8181 19.7323 17.3077C19.7303 17.9609 19.4653 18.5868 18.995 19.0487C18.5248 19.5106 17.8876 19.7709 17.2225 19.7729Z" fill="#6C6C6C"/>
<circle cx="10" cy="5" r="4" stroke="#6C6C6C" stroke-width="2"/>
</svg>
