<svg class="inline mr-2" width="21" height="18" viewBox="0 0 21 18" fill="none" xmlns="http://www.w3.org/2000/svg">
    <path d="M11.9 5.88508C11.9 5.67972 11.9616 5.47898 12.077 5.30823C12.1923 5.13748 12.3563 5.0044 12.5482 4.92581C12.74 4.84723 12.9512 4.82666 13.1548 4.86673C13.3585 4.90679 13.5456 5.00568 13.6925 5.15089C13.8393 5.2961 13.9393 5.48111 13.9798 5.68252C14.0203 5.88393 13.9995 6.0927 13.9201 6.28242C13.8406 6.47215 13.706 6.63431 13.5333 6.7484C13.3607 6.86249 13.1577 6.92339 12.95 6.92339C12.6715 6.92339 12.4045 6.81399 12.2075 6.61927C12.0106 6.42455 11.9 6.16046 11.9 5.88508ZM8.05 4.84678C7.84233 4.84678 7.63932 4.90767 7.46665 5.02176C7.29398 5.13585 7.1594 5.29801 7.07993 5.48774C7.00045 5.67746 6.97966 5.88623 7.02018 6.08765C7.06069 6.28906 7.16069 6.47407 7.30754 6.61927C7.45438 6.76448 7.64147 6.86337 7.84515 6.90344C8.04883 6.9435 8.25996 6.92294 8.45182 6.84435C8.64368 6.76576 8.80767 6.63268 8.92304 6.46193C9.03842 6.29118 9.1 6.09044 9.1 5.88508C9.1 5.60971 8.98938 5.34561 8.79246 5.15089C8.59555 4.95617 8.32848 4.84678 8.05 4.84678ZM18.2 10.3844C18.2019 11.0563 18.1136 11.7255 17.9375 12.3745L19.8835 13.2155C20.0285 13.2808 20.1466 13.393 20.2183 13.5337C20.2901 13.6743 20.3112 13.8349 20.2781 13.989C20.2451 14.1431 20.1599 14.2815 20.0366 14.3812C19.9133 14.481 19.7593 14.5361 19.6 14.5376C19.5036 14.5378 19.4082 14.5181 19.32 14.4797L17.4457 13.6724C16.8187 14.9682 15.8338 16.0621 14.6048 16.8279C13.3757 17.5936 11.9527 18 10.5 18C9.04733 18 7.62429 17.5936 6.39525 16.8279C5.1662 16.0621 4.18128 14.9682 3.55425 13.6724L1.68 14.4797C1.59178 14.5181 1.4964 14.5378 1.4 14.5376C1.23926 14.5375 1.08345 14.4827 0.958743 14.3824C0.834038 14.2821 0.74804 14.1425 0.715194 13.9869C0.682349 13.8313 0.704658 13.6692 0.778373 13.528C0.852089 13.3867 0.97272 13.2749 1.12 13.2112L3.0625 12.3745C2.88639 11.7255 2.79812 11.0563 2.8 10.3844V9.6922H0.7C0.514348 9.6922 0.336301 9.61928 0.205025 9.48946C0.0737498 9.35965 0 9.18358 0 9C0 8.81641 0.0737498 8.64035 0.205025 8.51054C0.336301 8.38072 0.514348 8.3078 0.7 8.3078H2.8V7.61559C2.79812 6.94367 2.88639 6.27447 3.0625 5.6255L1.12 4.7888C1.03376 4.75379 0.955464 4.7021 0.889702 4.63676C0.82394 4.57142 0.77204 4.49375 0.737046 4.4083C0.702052 4.32286 0.684671 4.23136 0.685921 4.13918C0.687171 4.04701 0.707029 3.956 0.744327 3.87152C0.781626 3.78703 0.835615 3.71076 0.903125 3.64719C0.970635 3.58362 1.05031 3.53402 1.13746 3.50131C1.22462 3.4686 1.31751 3.45343 1.41067 3.4567C1.50384 3.45997 1.59541 3.4816 1.68 3.52034L3.55425 4.32762C4.18128 3.03184 5.1662 1.93789 6.39525 1.17212C7.62429 0.406352 9.04733 0 10.5 0C11.9527 0 13.3757 0.406352 14.6048 1.17212C15.8338 1.93789 16.8187 3.03184 17.4457 4.32762L19.32 3.51774C19.4893 3.44902 19.679 3.44858 19.8486 3.5165C20.0182 3.58442 20.1542 3.7153 20.2274 3.88113C20.3006 4.04696 20.3052 4.23454 20.2403 4.40371C20.1754 4.57288 20.046 4.71018 19.88 4.78621L17.9375 5.62983C18.1136 6.2788 18.2019 6.948 18.2 7.61992V8.31212H20.3C20.4857 8.31212 20.6637 8.38505 20.795 8.51486C20.9263 8.64468 21 8.82074 21 9.00433C21 9.18791 20.9263 9.36397 20.795 9.49379C20.6637 9.6236 20.4857 9.69653 20.3 9.69653H18.2V10.3844ZM4.2 8.3078H16.8V7.61559C16.8 5.96334 16.1363 4.37875 14.9548 3.21043C13.7733 2.04211 12.1709 1.38576 10.5 1.38576C8.82914 1.38576 7.22671 2.04211 6.04523 3.21043C4.86375 4.37875 4.2 5.96334 4.2 7.61559V8.3078ZM9.8 16.5744V9.6922H4.2V10.3844C4.20184 11.9162 4.77366 13.3937 5.80645 14.5353C6.83924 15.6769 8.26075 16.4027 9.8 16.5744ZM16.8 10.3844V9.6922H11.2V16.5744C12.7392 16.4027 14.1608 15.6769 15.1936 14.5353C16.2263 13.3937 16.7982 11.9162 16.8 10.3844Z" fill="black"/>
</svg>