<svg width="30" height="28" viewBox="0 0 30 28" fill="none" xmlns="http://www.w3.org/2000/svg">
<path d="M0 1C0 0.447715 0.447715 0 1 0H5.31508C5.75867 0 6.14924 0.292223 6.27443 0.717777L10.129 13.8206C10.1603 13.9269 10.258 14 10.3689 14H23.084C23.1916 14 23.2871 13.9312 23.3212 13.8291L26.8793 3.15708C27.054 2.63306 27.6205 2.34994 28.1445 2.52479L28.6616 2.69736C29.1854 2.87215 29.4684 3.43841 29.2938 3.96225L25.3261 15.8618C25.19 16.2701 24.8079 16.5455 24.3775 16.5455H11.2699C11.096 16.5455 10.9752 16.7187 11.0353 16.8819L11.7888 18.9273C11.825 19.0256 11.9187 19.0909 12.0234 19.0909H27C27.5523 19.0909 28 19.5386 28 20.0909V20.6364C28 21.1886 27.5523 21.6364 27 21.6364H10.5339C10.1095 21.6364 9.73126 21.3684 9.59049 20.968L7.59309 15.2867L4.16878 2.72968C4.13912 2.62091 4.04033 2.54545 3.92759 2.54545H1C0.447715 2.54545 0 2.09774 0 1.54545V1ZM16.8182 1.27273C17.3705 1.27273 17.8182 1.72044 17.8182 2.27273V4.84091C17.8182 4.97898 17.9301 5.09091 18.0682 5.09091H20.6364C21.1887 5.09091 21.6364 5.53862 21.6364 6.09091V6.63636C21.6364 7.18865 21.1886 7.63636 20.6364 7.63636H18.0682C17.9301 7.63636 17.8182 7.74829 17.8182 7.88636V10.4545C17.8182 11.0068 17.3705 11.4545 16.8182 11.4545H16.2727C15.7204 11.4545 15.2727 11.0068 15.2727 10.4545V7.88636C15.2727 7.74829 15.1608 7.63636 15.0227 7.63636H12.4545C11.9023 7.63636 11.4545 7.18865 11.4545 6.63636V6.09091C11.4545 5.53862 11.9023 5.09091 12.4545 5.09091H15.0227C15.1608 5.09091 15.2727 4.97898 15.2727 4.84091V2.27273C15.2727 1.72044 15.7204 1.27273 16.2727 1.27273H16.8182ZM5.09091 25.4545C5.09091 24.7794 5.35909 24.132 5.83646 23.6546C6.31382 23.1773 6.96127 22.9091 7.63636 22.9091C8.31146 22.9091 8.95891 23.1773 9.43627 23.6546C9.91364 24.132 10.1818 24.7794 10.1818 25.4545C10.1818 26.1296 9.91364 26.7771 9.43627 27.2545C8.95891 27.7318 8.31146 28 7.63636 28C6.96127 28 6.31382 27.7318 5.83646 27.2545C5.35909 26.7771 5.09091 26.1296 5.09091 25.4545ZM22.9091 25.4545C22.9091 24.7794 23.1773 24.132 23.6546 23.6546C24.132 23.1773 24.7794 22.9091 25.4545 22.9091C26.1296 22.9091 26.7771 23.1773 27.2545 23.6546C27.7318 24.132 28 24.7794 28 25.4545C28 26.1296 27.7318 26.7771 27.2545 27.2545C26.7771 27.7318 26.1296 28 25.4545 28C24.7794 28 24.132 27.7318 23.6546 27.2545C23.1773 26.7771 22.9091 26.1296 22.9091 25.4545Z" fill="white"/>
</svg>
