<svg width="29" height="27" viewBox="0 0 29 27" fill="none" xmlns="http://www.w3.org/2000/svg">
<path d="M0 1C0 0.447715 0.447715 0 1 0H4.55455C5.00442 0 5.39891 0.300407 5.51854 0.734082L8.85147 12.8165C8.88138 12.9249 8.98 13 9.09247 13H22.9472C23.0476 13 23.1383 12.9399 23.1774 12.8475L25.9115 6.38989C26.1907 5.73052 25.7067 5 24.9907 5H9.9021C9.34981 5 8.9021 4.55228 8.9021 4C8.9021 3.44772 9.34981 3 9.9021 3H27.5379C28.2414 3 28.7249 3.70702 28.4699 4.36258L24.5794 14.3626C24.4298 14.7469 24.0598 15 23.6474 15H9.98357C9.81529 15 9.69507 15.1629 9.74469 15.3237L10.5162 17.8237C10.5485 17.9285 10.6454 18 10.755 18H26.3948C26.9471 18 27.3948 18.4477 27.3948 19C27.3948 19.5523 26.9471 20 26.3948 20H10.005C9.57726 20 9.19689 19.728 9.05865 19.3232L7.58222 15L4.03581 2.18333C4.00584 2.075 3.90726 2 3.79486 2H1C0.447715 2 0 1.55228 0 1ZM9.28979 24.4545C9.28979 23.7794 9.55695 23.132 10.0325 22.6546C10.508 22.1773 11.153 21.9091 11.8255 21.9091C12.498 21.9091 13.143 22.1773 13.6185 22.6546C14.0941 23.132 14.3612 23.7794 14.3612 24.4545C14.3612 25.1296 14.0941 25.7771 13.6185 26.2545C13.143 26.7318 12.498 27 11.8255 27C11.153 27 10.508 26.7318 10.0325 26.2545C9.55695 25.7771 9.28979 25.1296 9.28979 24.4545ZM22.3234 24.4545C22.3234 23.7794 22.5906 23.132 23.0661 22.6546C23.5416 22.1773 24.1866 21.9091 24.8591 21.9091C25.5316 21.9091 26.1766 22.1773 26.6521 22.6546C27.1277 23.132 27.3948 23.7794 27.3948 24.4545C27.3948 25.1296 27.1277 25.7771 26.6521 26.2545C26.1766 26.7318 25.5316 27 24.8591 27C24.1866 27 23.5416 26.7318 23.0661 26.2545C22.5906 25.7771 22.3234 25.1296 22.3234 24.4545Z" fill="#6C6C6C"/>
</svg>
