<svg width="8" height="8" viewBox="0 0 8 8" fill="none" xmlns="http://www.w3.org/2000/svg">
<path d="M7.25094 1.56468L4.99416 4.10059L7.25094 6.63649C7.37065 6.77101 7.4379 6.95345 7.4379 7.14368C7.4379 7.33391 7.37065 7.51635 7.25094 7.65086C7.13123 7.78537 6.96888 7.86094 6.79959 7.86094C6.63029 7.86094 6.46794 7.78537 6.34823 7.65086L4.09145 5.11495L1.83467 7.65086C1.71496 7.78537 1.5526 7.86094 1.38331 7.86094C1.21402 7.86094 1.05166 7.78537 0.931954 7.65086C0.812247 7.51635 0.744997 7.33391 0.744997 7.14368C0.744997 6.95345 0.812247 6.77101 0.931954 6.6365L3.18874 4.10059L0.931954 1.56468C0.812247 1.43016 0.744997 1.24772 0.744996 1.05749C0.744997 0.867264 0.812247 0.684826 0.931954 0.550313C1.05166 0.4158 1.21402 0.340231 1.38331 0.340231C1.5526 0.340231 1.71496 0.4158 1.83467 0.550313L4.09145 3.08622L6.34823 0.550313C6.46794 0.4158 6.63029 0.340231 6.79959 0.340231C6.96888 0.340231 7.13123 0.4158 7.25094 0.550313C7.37065 0.684826 7.4379 0.867264 7.4379 1.05749C7.4379 1.24772 7.37065 1.43016 7.25094 1.56468Z" fill="#6C6C6C"/>
</svg>
