<svg class="inline mr-2" width="25" height="18" viewBox="0 0 25 18" fill="none" xmlns="http://www.w3.org/2000/svg">
    <path d="M8.71974 14.8139C8.18497 15.5694 7.61223 16.2989 7.00359 17C2.65128 16.88 1 14.1439 1 14.1439C1.06125 10.267 2.03122 6.4542 3.83667 2.99357C5.42318 1.7914 7.35633 1.09672 9.36846 1.00571L9.95821 2.32524C10.8006 2.21249 11.6497 2.15334 12.5 2.14816C13.3542 2.15094 14.2072 2.20819 15.0536 2.31953L15.6433 1C17.6574 1.09593 19.5908 1.79667 21.1751 3.005C22.9748 6.4631 23.9406 10.2717 24 14.1439C24 14.1439 22.3487 16.88 17.9964 17C17.3966 16.3026 16.8336 15.5762 16.3097 14.8236M20.1195 13.1671C17.8549 14.2781 15.664 15.3891 12.5 15.3891C9.33603 15.3891 7.14513 14.2781 4.88051 13.1671" stroke="black" stroke-width="1.5" stroke-linecap="round" stroke-linejoin="round"/>
    <path d="M8.87115 12.1915C9.96227 12.1915 10.8468 11.3347 10.8468 10.2779C10.8468 9.22101 9.96227 8.36426 8.87115 8.36426C7.78003 8.36426 6.89551 9.22101 6.89551 10.2779C6.89551 11.3347 7.78003 12.1915 8.87115 12.1915Z" stroke="black" stroke-width="1.5" stroke-linecap="round" stroke-linejoin="round"/>
    <path d="M16.129 12.1915C17.2201 12.1915 18.1046 11.3347 18.1046 10.2779C18.1046 9.22101 17.2201 8.36426 16.129 8.36426C15.0378 8.36426 14.1533 9.22101 14.1533 10.2779C14.1533 11.3347 15.0378 12.1915 16.129 12.1915Z" stroke="black" stroke-width="1.5" stroke-linecap="round" stroke-linejoin="round"/>
</svg>