<svg class="inline mr-2" width="18" height="18" viewBox="0 0 18 18" fill="none" xmlns="http://www.w3.org/2000/svg">
    <path d="M7.39984 15.8543C4.65671 16.7799 2.37116 15.8543 1 13" stroke="black" stroke-width="1.5" stroke-linecap="round" stroke-linejoin="round"/>
    <path d="M7.39931 17V14.4065C7.39931 13.9281 7.54651 13.5121 7.7833 13.1361C7.9465 12.8785 7.8345 12.5121 7.54091 12.4321C5.10657 11.7617 3.39941 10.6858 3.39941 7.11626C3.39941 6.18828 3.70341 5.3163 4.23779 4.55632C4.37059 4.36753 4.43779 4.27313 4.45379 4.18833C4.46979 4.10193 4.44179 3.99074 4.38579 3.76674C4.15939 2.85796 4.17459 1.89239 4.51379 1.02281C4.51379 1.02281 5.21537 0.793218 6.81293 1.79079C7.17772 2.01879 7.36011 2.13318 7.52091 2.15878C7.6817 2.18438 7.8961 2.13078 8.32489 2.02359C8.93797 1.87159 9.56761 1.79661 10.1992 1.80039C10.8309 1.79769 11.4604 1.87293 12.0736 2.02439C12.5024 2.13158 12.7176 2.18438 12.8784 2.15958C13.0384 2.13398 13.2208 2.01959 13.5856 1.79159C15.1831 0.794018 15.8847 1.02361 15.8847 1.02361C16.2239 1.89319 16.2391 2.85876 16.0127 3.76754C15.9567 3.99154 15.9295 4.10353 15.9455 4.18833C15.9615 4.27313 16.0279 4.36833 16.1607 4.55712C16.6951 5.3171 16.9991 6.18908 16.9991 7.11706C16.9991 10.6866 15.2919 11.7625 12.8576 12.4313C12.564 12.5121 12.452 12.8785 12.6152 13.1353C12.852 13.5113 12.9992 13.9273 12.9992 14.4065V17" stroke="black" stroke-width="1.5" stroke-linecap="round" stroke-linejoin="round"/>
</svg>