<svg width="22" height="24" viewBox="0 0 22 24" fill="none" xmlns="http://www.w3.org/2000/svg">
<path d="M21.6927 12.7075L16.4547 17.7075C16.3573 17.8004 16.2418 17.8741 16.1146 17.9244C15.9874 17.9747 15.8511 18.0006 15.7135 18.0006C15.5758 18.0006 15.4395 17.9747 15.3123 17.9244C15.1852 17.8741 15.0696 17.8004 14.9723 17.7075C14.8749 17.6146 14.7977 17.5043 14.745 17.3829C14.6924 17.2615 14.6653 17.1314 14.6653 17C14.6653 16.8686 14.6924 16.7385 14.745 16.6171C14.7977 16.4957 14.8749 16.3854 14.9723 16.2925L18.4229 13H6.28489C6.00704 13 5.74058 12.8946 5.54411 12.7071C5.34764 12.5196 5.23727 12.2652 5.23727 12C5.23727 11.7348 5.34764 11.4804 5.54411 11.2929C5.74058 11.1054 6.00704 11 6.28489 11H18.4229L14.9723 7.7075C14.7757 7.51986 14.6653 7.26536 14.6653 7C14.6653 6.73464 14.7757 6.48014 14.9723 6.2925C15.1688 6.10486 15.4355 5.99944 15.7135 5.99944C15.9915 5.99944 16.2581 6.10486 16.4547 6.2925L21.6927 11.2925C21.7902 11.3854 21.8674 11.4957 21.9201 11.6171C21.9729 11.7385 22 11.8686 22 12C22 12.1314 21.9729 12.2615 21.9201 12.3829C21.8674 12.5043 21.7902 12.6146 21.6927 12.7075ZM1.04762 24H9.42857C9.70642 24 9.97288 23.8946 10.1694 23.7071C10.3658 23.5196 10.4762 23.2652 10.4762 23C10.4762 22.7348 10.3658 22.4804 10.1694 22.2929C9.97288 22.1054 9.70642 22 9.42857 22H2.09524V2H9.42857C9.70642 2 9.97288 1.89464 10.1694 1.70711C10.3658 1.51957 10.4762 1.26522 10.4762 1C10.4762 0.734783 10.3658 0.480429 10.1694 0.292892C9.97288 0.105356 9.70642 0 9.42857 0H1.04762C0.769773 0 0.503307 0.105356 0.306841 0.292892C0.110374 0.480429 0 0.734783 0 1V23C0 23.2652 0.110374 23.5196 0.306841 23.7071C0.503307 23.8946 0.769773 24 1.04762 24Z" fill="#6C6C6C"/>
</svg>
