<svg class="inline mr-2" width="25" height="18" viewBox="0 0 25 20" fill="none" xmlns="http://www.w3.org/2000/svg">
    <path d="M3.06489 19C2.47626 19 1.98517 18.802 1.59161 18.406C1.19806 18.01 1.00085 17.5154 1 16.9223V3.07771C1 2.48543 1.1972 1.99129 1.59161 1.59529C1.98602 1.19929 2.47668 1.00086 3.06361 1H21.9364C22.5242 1 23.0148 1.19843 23.4084 1.59529C23.8019 1.99214 23.9991 2.48629 24 3.07771V16.9236C24 17.515 23.8028 18.0091 23.4084 18.406C23.014 18.8029 22.5233 19.0009 21.9364 19H3.06489ZM12.5 10.1491L2.27778 3.42357V16.9236C2.27778 17.1541 2.35146 17.3436 2.49883 17.4919C2.6462 17.6401 2.83489 17.7143 3.06489 17.7143H21.9364C22.1655 17.7143 22.3538 17.6401 22.5012 17.4919C22.6485 17.3436 22.7222 17.1537 22.7222 16.9223V3.42229L12.5 10.1491ZM12.5 8.71428L22.3287 2.28571H2.67133L12.5 8.71428ZM2.27778 3.42357V2.28571V16.9236C2.27778 17.1541 2.35146 17.3436 2.49883 17.4919C2.6462 17.6401 2.83489 17.7143 3.06489 17.7143H2.27778V3.42357Z" fill="black"/>
    <path d="M2.27778 3.42357L12.5 10.1491L22.7222 3.42229V16.9223C22.7222 17.1537 22.6485 17.3436 22.5012 17.4919C22.3538 17.6401 22.1655 17.7143 21.9364 17.7143H3.06489M2.27778 3.42357V16.9236M2.27778 3.42357V2.28571V16.9236M2.27778 3.42357V17.7143H3.06489M2.27778 16.9236C2.27778 17.1541 2.35146 17.3436 2.49883 17.4919C2.6462 17.6401 2.83489 17.7143 3.06489 17.7143M3.06489 19C2.47626 19 1.98517 18.802 1.59161 18.406C1.19806 18.01 1.00085 17.5154 1 16.9223V3.07771C1 2.48543 1.1972 1.99129 1.59161 1.59529C1.98602 1.19929 2.47668 1.00086 3.06361 1H21.9364C22.5242 1 23.0148 1.19843 23.4084 1.59529C23.8019 1.99214 23.9991 2.48629 24 3.07771V16.9236C24 17.515 23.8028 18.0091 23.4084 18.406C23.014 18.8029 22.5233 19.0009 21.9364 19H3.06489ZM12.5 8.71428L22.3287 2.28571H2.67133L12.5 8.71428Z" stroke="black" stroke-width="0.5"/>
</svg>