<svg width="24" height="26" viewBox="0 0 24 26" fill="none" xmlns="http://www.w3.org/2000/svg">
<mask id="path-1-outside-1_1039_865" maskUnits="userSpaceOnUse" x="0" y="0" width="24" height="26" fill="black">
<rect fill="white" width="24" height="26"/>
<path fill-rule="evenodd" clip-rule="evenodd" d="M12.0001 2.67442C11.3275 2.67442 10.6824 2.93904 10.2068 3.41006C9.73114 3.88108 9.46393 4.51992 9.46393 5.18605V5.47628C10.0918 5.46512 10.7805 5.46512 11.538 5.46512H12.4634C13.2186 5.46512 13.9085 5.46512 14.5374 5.47628V5.18605C14.5374 4.85612 14.4718 4.52943 14.3443 4.22463C14.2168 3.91983 14.0298 3.6429 13.7942 3.40966C13.5586 3.17642 13.2789 2.99144 12.971 2.86528C12.6632 2.73913 12.3333 2.67427 12.0001 2.67442ZM16.2271 5.55219V5.18605C16.2271 4.07584 15.7818 3.0111 14.9891 2.22606C14.1963 1.44103 13.1212 1 12.0001 1C10.8791 1 9.8039 1.44103 9.01119 2.22606C8.21848 3.0111 7.77313 4.07584 7.77313 5.18605V5.55219C7.61194 5.56558 7.45752 5.58121 7.30647 5.60019C6.168 5.73972 5.23017 6.03219 4.43212 6.68744C3.63519 7.3427 3.17191 8.20223 2.82361 9.28502C2.48545 10.3343 2.2307 11.6817 1.91058 13.3773L1.8869 13.5001C1.43377 15.8923 1.07758 17.7777 1.01107 19.2634C0.94344 20.7872 1.17339 22.0486 2.04133 23.0833C2.90927 24.1193 4.11876 24.5747 5.64273 24.7901C7.13063 25 9.06603 25 11.5244 25H12.4769C14.9342 25 16.8707 25 18.3575 24.7901C19.8815 24.5747 21.0921 24.1193 21.96 23.0833C22.828 22.0486 23.0557 20.7872 22.9892 19.2634C22.9238 17.7777 22.5665 15.8923 22.1133 13.5001L22.0908 13.3773C21.7696 11.6817 21.5137 10.3332 21.1778 9.28502C20.8283 8.20223 20.3662 7.3427 19.5681 6.68744C18.7712 6.03219 17.8322 5.7386 16.6938 5.60019C16.5385 5.58133 16.383 5.56533 16.2271 5.55219ZM7.51388 7.26233C6.55012 7.37954 5.96736 7.60167 5.51197 7.97674C5.05771 8.34958 4.7297 8.87535 4.43437 9.79293C4.13341 10.7306 3.89557 11.9786 3.56192 13.7412C3.09301 16.216 2.76048 17.9831 2.70074 19.3371C2.64213 20.6655 2.85855 21.4357 3.34212 22.0151C3.82681 22.5922 4.5516 22.9438 5.88169 23.1313C7.23433 23.3233 9.05138 23.3256 11.5943 23.3256H12.4059C14.95 23.3256 16.7648 23.3233 18.1186 23.1325C19.4486 22.9438 20.1734 22.5922 20.6581 22.0151C21.1428 21.4368 21.3581 20.6666 21.3006 19.336C21.2398 17.9842 20.9072 16.216 20.4383 13.7412C20.1047 11.9775 19.868 10.7317 19.5659 9.79293C19.2706 8.87535 18.9437 8.34958 18.4883 7.97563C18.0329 7.60167 17.4513 7.37953 16.4864 7.26121C15.4989 7.14065 14.2173 7.13953 12.4059 7.13953H11.5943C9.78293 7.13953 8.5013 7.14065 7.51388 7.26233ZM14.8159 12.933C14.9833 13.0804 15.0848 13.2875 15.0981 13.509C15.1114 13.7304 15.0354 13.948 14.8869 14.114L11.8806 17.4629C11.8067 17.5454 11.7169 17.6126 11.6166 17.6607C11.5163 17.7087 11.4074 17.7367 11.2962 17.7429C11.1849 17.7491 11.0735 17.7335 10.9684 17.6969C10.8633 17.6604 10.7665 17.6036 10.6836 17.5299L9.17988 16.1903C9.01306 16.0417 8.91269 15.8335 8.90086 15.6116C8.88902 15.3897 8.96668 15.1723 9.11675 15.0071C9.26683 14.8419 9.47702 14.7425 9.70109 14.7308C9.92517 14.719 10.1448 14.7959 10.3116 14.9446L11.1818 15.7215L13.6233 13.0022C13.7721 12.8364 13.9813 12.7359 14.2049 12.7227C14.4285 12.7095 14.6482 12.7859 14.8159 12.933Z"/>
</mask>
<path fill-rule="evenodd" clip-rule="evenodd" d="M12.0001 2.67442C11.3275 2.67442 10.6824 2.93904 10.2068 3.41006C9.73114 3.88108 9.46393 4.51992 9.46393 5.18605V5.47628C10.0918 5.46512 10.7805 5.46512 11.538 5.46512H12.4634C13.2186 5.46512 13.9085 5.46512 14.5374 5.47628V5.18605C14.5374 4.85612 14.4718 4.52943 14.3443 4.22463C14.2168 3.91983 14.0298 3.6429 13.7942 3.40966C13.5586 3.17642 13.2789 2.99144 12.971 2.86528C12.6632 2.73913 12.3333 2.67427 12.0001 2.67442ZM16.2271 5.55219V5.18605C16.2271 4.07584 15.7818 3.0111 14.9891 2.22606C14.1963 1.44103 13.1212 1 12.0001 1C10.8791 1 9.8039 1.44103 9.01119 2.22606C8.21848 3.0111 7.77313 4.07584 7.77313 5.18605V5.55219C7.61194 5.56558 7.45752 5.58121 7.30647 5.60019C6.168 5.73972 5.23017 6.03219 4.43212 6.68744C3.63519 7.3427 3.17191 8.20223 2.82361 9.28502C2.48545 10.3343 2.2307 11.6817 1.91058 13.3773L1.8869 13.5001C1.43377 15.8923 1.07758 17.7777 1.01107 19.2634C0.94344 20.7872 1.17339 22.0486 2.04133 23.0833C2.90927 24.1193 4.11876 24.5747 5.64273 24.7901C7.13063 25 9.06603 25 11.5244 25H12.4769C14.9342 25 16.8707 25 18.3575 24.7901C19.8815 24.5747 21.0921 24.1193 21.96 23.0833C22.828 22.0486 23.0557 20.7872 22.9892 19.2634C22.9238 17.7777 22.5665 15.8923 22.1133 13.5001L22.0908 13.3773C21.7696 11.6817 21.5137 10.3332 21.1778 9.28502C20.8283 8.20223 20.3662 7.3427 19.5681 6.68744C18.7712 6.03219 17.8322 5.7386 16.6938 5.60019C16.5385 5.58133 16.383 5.56533 16.2271 5.55219ZM7.51388 7.26233C6.55012 7.37954 5.96736 7.60167 5.51197 7.97674C5.05771 8.34958 4.7297 8.87535 4.43437 9.79293C4.13341 10.7306 3.89557 11.9786 3.56192 13.7412C3.09301 16.216 2.76048 17.9831 2.70074 19.3371C2.64213 20.6655 2.85855 21.4357 3.34212 22.0151C3.82681 22.5922 4.5516 22.9438 5.88169 23.1313C7.23433 23.3233 9.05138 23.3256 11.5943 23.3256H12.4059C14.95 23.3256 16.7648 23.3233 18.1186 23.1325C19.4486 22.9438 20.1734 22.5922 20.6581 22.0151C21.1428 21.4368 21.3581 20.6666 21.3006 19.336C21.2398 17.9842 20.9072 16.216 20.4383 13.7412C20.1047 11.9775 19.868 10.7317 19.5659 9.79293C19.2706 8.87535 18.9437 8.34958 18.4883 7.97563C18.0329 7.60167 17.4513 7.37953 16.4864 7.26121C15.4989 7.14065 14.2173 7.13953 12.4059 7.13953H11.5943C9.78293 7.13953 8.5013 7.14065 7.51388 7.26233ZM14.8159 12.933C14.9833 13.0804 15.0848 13.2875 15.0981 13.509C15.1114 13.7304 15.0354 13.948 14.8869 14.114L11.8806 17.4629C11.8067 17.5454 11.7169 17.6126 11.6166 17.6607C11.5163 17.7087 11.4074 17.7367 11.2962 17.7429C11.1849 17.7491 11.0735 17.7335 10.9684 17.6969C10.8633 17.6604 10.7665 17.6036 10.6836 17.5299L9.17988 16.1903C9.01306 16.0417 8.91269 15.8335 8.90086 15.6116C8.88902 15.3897 8.96668 15.1723 9.11675 15.0071C9.26683 14.8419 9.47702 14.7425 9.70109 14.7308C9.92517 14.719 10.1448 14.7959 10.3116 14.9446L11.1818 15.7215L13.6233 13.0022C13.7721 12.8364 13.9813 12.7359 14.2049 12.7227C14.4285 12.7095 14.6482 12.7859 14.8159 12.933Z" fill="#6C6C6C"/>
<path fill-rule="evenodd" clip-rule="evenodd" d="M12.0001 2.67442C11.3275 2.67442 10.6824 2.93904 10.2068 3.41006C9.73114 3.88108 9.46393 4.51992 9.46393 5.18605V5.47628C10.0918 5.46512 10.7805 5.46512 11.538 5.46512H12.4634C13.2186 5.46512 13.9085 5.46512 14.5374 5.47628V5.18605C14.5374 4.85612 14.4718 4.52943 14.3443 4.22463C14.2168 3.91983 14.0298 3.6429 13.7942 3.40966C13.5586 3.17642 13.2789 2.99144 12.971 2.86528C12.6632 2.73913 12.3333 2.67427 12.0001 2.67442ZM16.2271 5.55219V5.18605C16.2271 4.07584 15.7818 3.0111 14.9891 2.22606C14.1963 1.44103 13.1212 1 12.0001 1C10.8791 1 9.8039 1.44103 9.01119 2.22606C8.21848 3.0111 7.77313 4.07584 7.77313 5.18605V5.55219C7.61194 5.56558 7.45752 5.58121 7.30647 5.60019C6.168 5.73972 5.23017 6.03219 4.43212 6.68744C3.63519 7.3427 3.17191 8.20223 2.82361 9.28502C2.48545 10.3343 2.2307 11.6817 1.91058 13.3773L1.8869 13.5001C1.43377 15.8923 1.07758 17.7777 1.01107 19.2634C0.94344 20.7872 1.17339 22.0486 2.04133 23.0833C2.90927 24.1193 4.11876 24.5747 5.64273 24.7901C7.13063 25 9.06603 25 11.5244 25H12.4769C14.9342 25 16.8707 25 18.3575 24.7901C19.8815 24.5747 21.0921 24.1193 21.96 23.0833C22.828 22.0486 23.0557 20.7872 22.9892 19.2634C22.9238 17.7777 22.5665 15.8923 22.1133 13.5001L22.0908 13.3773C21.7696 11.6817 21.5137 10.3332 21.1778 9.28502C20.8283 8.20223 20.3662 7.3427 19.5681 6.68744C18.7712 6.03219 17.8322 5.7386 16.6938 5.60019C16.5385 5.58133 16.383 5.56533 16.2271 5.55219ZM7.51388 7.26233C6.55012 7.37954 5.96736 7.60167 5.51197 7.97674C5.05771 8.34958 4.7297 8.87535 4.43437 9.79293C4.13341 10.7306 3.89557 11.9786 3.56192 13.7412C3.09301 16.216 2.76048 17.9831 2.70074 19.3371C2.64213 20.6655 2.85855 21.4357 3.34212 22.0151C3.82681 22.5922 4.5516 22.9438 5.88169 23.1313C7.23433 23.3233 9.05138 23.3256 11.5943 23.3256H12.4059C14.95 23.3256 16.7648 23.3233 18.1186 23.1325C19.4486 22.9438 20.1734 22.5922 20.6581 22.0151C21.1428 21.4368 21.3581 20.6666 21.3006 19.336C21.2398 17.9842 20.9072 16.216 20.4383 13.7412C20.1047 11.9775 19.868 10.7317 19.5659 9.79293C19.2706 8.87535 18.9437 8.34958 18.4883 7.97563C18.0329 7.60167 17.4513 7.37953 16.4864 7.26121C15.4989 7.14065 14.2173 7.13953 12.4059 7.13953H11.5943C9.78293 7.13953 8.5013 7.14065 7.51388 7.26233ZM14.8159 12.933C14.9833 13.0804 15.0848 13.2875 15.0981 13.509C15.1114 13.7304 15.0354 13.948 14.8869 14.114L11.8806 17.4629C11.8067 17.5454 11.7169 17.6126 11.6166 17.6607C11.5163 17.7087 11.4074 17.7367 11.2962 17.7429C11.1849 17.7491 11.0735 17.7335 10.9684 17.6969C10.8633 17.6604 10.7665 17.6036 10.6836 17.5299L9.17988 16.1903C9.01306 16.0417 8.91269 15.8335 8.90086 15.6116C8.88902 15.3897 8.96668 15.1723 9.11675 15.0071C9.26683 14.8419 9.47702 14.7425 9.70109 14.7308C9.92517 14.719 10.1448 14.7959 10.3116 14.9446L11.1818 15.7215L13.6233 13.0022C13.7721 12.8364 13.9813 12.7359 14.2049 12.7227C14.4285 12.7095 14.6482 12.7859 14.8159 12.933Z" stroke="#6C6C6C" stroke-width="0.2" mask="url(#path-1-outside-1_1039_865)"/>
</svg>
