<svg width="18" height="18" viewBox="0 0 18 18" fill="none" xmlns="http://www.w3.org/2000/svg">
<path fill-rule="evenodd" clip-rule="evenodd" d="M8.00644 1.80565e-08C6.72963 0.000108791 5.47135 0.305544 4.3366 0.890824C3.20184 1.4761 2.2235 2.32425 1.48321 3.36452C0.742925 4.40478 0.26215 5.60698 0.0809993 6.87083C-0.100152 8.13468 0.0235751 9.42353 0.441857 10.6298C0.860138 11.8361 1.56085 12.9249 2.48552 13.8054C3.41019 14.6858 4.53201 15.3324 5.75739 15.6911C6.98278 16.0498 8.27618 16.1103 9.5297 15.8676C10.7832 15.6248 11.9605 15.0858 12.9633 14.2955L16.4036 17.7356C16.5812 17.9072 16.8192 18.0021 17.0662 18C17.3132 17.9978 17.5494 17.8988 17.7241 17.7241C17.8987 17.5495 17.9978 17.3132 18 17.0662C18.0021 16.8192 17.9072 16.5813 17.7356 16.4036L14.2953 12.9635C15.226 11.7829 15.8055 10.364 15.9675 8.86941C16.1295 7.3748 15.8674 5.86478 15.2112 4.51217C14.555 3.15955 13.5312 2.019 12.2571 1.22102C10.9829 0.423049 9.50986 -0.000100927 8.00644 1.80565e-08ZM1.88335 8.00682C1.88335 6.38294 2.52846 4.82556 3.67676 3.6773C4.82506 2.52904 6.3825 1.88396 8.00644 1.88396C9.63039 1.88396 11.1878 2.52904 12.3361 3.6773C13.4844 4.82556 14.1295 6.38294 14.1295 8.00682C14.1295 9.6307 13.4844 11.1881 12.3361 12.3363C11.1878 13.4846 9.63039 14.1297 8.00644 14.1297C6.3825 14.1297 4.82506 13.4846 3.67676 12.3363C2.52846 11.1881 1.88335 9.6307 1.88335 8.00682Z" fill="#808080"/>
</svg>
