<svg width="25" height="27" viewBox="0 0 25 27" fill="none" xmlns="http://www.w3.org/2000/svg">
<path d="M17.8553 0.628356C18.627 0.189567 19.5081 -0.0271833 20.3985 0.00272547C21.2889 0.0326343 22.153 0.308003 22.8926 0.797555C23.6322 1.28711 24.2176 1.97122 24.5824 2.77219C24.9472 3.57316 25.0767 4.45889 24.9563 5.32877C24.8358 6.19865 24.4703 7.01781 23.9011 7.69322C23.3319 8.36863 22.5818 8.87321 21.7362 9.14965C20.8906 9.42609 19.9832 9.46332 19.1172 9.2571C18.2512 9.05087 17.4612 8.60947 16.837 7.98302L9.35783 12.2383C9.47454 12.6553 9.53211 13.0747 9.53052 13.4964C9.53052 13.9165 9.47454 14.3402 9.35783 14.7544L16.837 19.0097C17.6502 18.1971 18.736 17.704 19.8913 17.6227C21.0466 17.5415 22.1924 17.8775 23.1146 18.5681C24.0367 19.2587 24.6722 20.2565 24.9021 21.3751C25.132 22.4938 24.9406 23.6566 24.3638 24.6463C23.7851 25.6377 22.859 26.3869 21.7593 26.753C20.6597 27.1191 19.4623 27.077 18.3919 26.6347C17.3216 26.1923 16.4519 25.3801 15.9463 24.3506C15.4407 23.3211 15.3339 22.1451 15.646 21.0435L8.16688 16.787C7.50382 17.4524 6.65476 17.9082 5.72787 18.0963C4.80098 18.2845 3.83823 18.1965 2.96228 17.8436C2.08632 17.4906 1.33683 16.8887 0.809275 16.1145C0.281723 15.3403 0 14.4289 0 13.4964C0 12.5639 0.281723 11.6524 0.809275 10.8782C1.33683 10.1041 2.08632 9.50214 2.96228 9.1492C3.83823 8.79625 4.80098 8.70825 5.72787 8.89641C6.65476 9.08457 7.50382 9.54037 8.16688 10.2057L15.646 5.95043C15.3634 4.94751 15.427 3.88046 15.8269 2.91706C16.2268 1.95367 16.9403 1.14857 17.8553 0.628356ZM22.2999 3.52117C22.1446 3.25208 21.9369 3.01592 21.6886 2.82627C21.4404 2.63662 21.1565 2.49723 20.8533 2.41613C20.5502 2.33502 20.2338 2.31381 19.9223 2.35371C19.6107 2.39361 19.3103 2.49383 19.0383 2.6486C18.7662 2.80337 18.528 3.00964 18.3372 3.25552C18.1463 3.50141 18.0068 3.78206 17.9265 4.08131C17.8462 4.38057 17.8268 4.69252 17.8693 4.9992C17.9119 5.30588 18.0156 5.60124 18.1744 5.86828C18.4925 6.40296 19.0124 6.79196 19.6204 6.95038C20.2285 7.1088 20.8755 7.02378 21.4202 6.71388C21.965 6.40398 22.3632 5.89435 22.528 5.2962C22.6928 4.69806 22.6108 4.05997 22.2999 3.52117ZM2.46818 14.1148C2.56472 14.4609 2.74046 14.7807 2.9819 15.0494C3.22333 15.3182 3.52406 15.5289 3.86098 15.6653C4.1979 15.8017 4.56207 15.8603 4.92552 15.8364C5.28898 15.8126 5.64206 15.707 5.95767 15.5278C6.34298 15.3083 6.65819 14.9869 6.86757 14.5999C7.07694 14.2129 7.1721 13.7759 7.14226 13.3383C7.11242 12.9008 6.95878 12.4802 6.69874 12.1243C6.43871 11.7684 6.08269 11.4914 5.67104 11.3248C5.2594 11.1581 4.80859 11.1084 4.36974 11.1813C3.93089 11.2542 3.52155 11.4468 3.18811 11.7372C2.85468 12.0277 2.6105 12.4044 2.48326 12.8246C2.35601 13.2449 2.35079 13.6918 2.46818 14.1148ZM21.4281 20.2666C21.1571 20.1101 20.8574 20.0079 20.5462 19.966C20.2349 19.924 19.9184 19.9432 19.6147 20.0223C19.311 20.1014 19.0262 20.2389 18.7766 20.427C18.5271 20.615 18.3178 20.8498 18.1607 21.1178C18.0036 21.3859 17.9019 21.6819 17.8614 21.9889C17.821 22.2959 17.8425 22.6077 17.9248 22.9064C18.0071 23.2051 18.1485 23.4848 18.341 23.7295C18.5335 23.9741 18.7731 24.1788 19.0462 24.3318C19.593 24.6381 20.2406 24.7189 20.8476 24.5565C21.4546 24.3941 21.9718 24.0018 22.2863 23.465C22.6008 22.9283 22.687 22.2907 22.5263 21.6915C22.3655 21.0923 21.9707 20.5801 21.4281 20.2666Z" fill="#6C6C6C"/>
</svg>
