<svg width="25" height="27" viewBox="0 0 25 27" fill="none" xmlns="http://www.w3.org/2000/svg">
<path d="M17.6709 14.2959L12.0459 19.9209C11.9414 20.0255 11.8173 20.1084 11.6808 20.1649C11.5442 20.2215 11.3978 20.2506 11.25 20.2506C11.1022 20.2506 10.9558 20.2215 10.8192 20.1649C10.6827 20.1084 10.5586 20.0255 10.4541 19.9209C10.3495 19.8164 10.2666 19.6923 10.2101 19.5558C10.1535 19.4192 10.1244 19.2728 10.1244 19.125C10.1244 18.9772 10.1535 18.8308 10.2101 18.6942C10.2666 18.5577 10.3495 18.4336 10.4541 18.3291L14.1595 14.625H1.125C0.826631 14.625 0.540483 14.5065 0.329505 14.2955C0.118526 14.0845 0 13.7984 0 13.5C0 13.2016 0.118526 12.9155 0.329505 12.7045C0.540483 12.4935 0.826631 12.375 1.125 12.375H14.1595L10.4541 8.67094C10.243 8.45984 10.1244 8.17353 10.1244 7.875C10.1244 7.57647 10.243 7.29016 10.4541 7.07906C10.6652 6.86797 10.9515 6.74937 11.25 6.74937C11.5485 6.74937 11.8348 6.86797 12.0459 7.07906L17.6709 12.7041C17.7755 12.8085 17.8585 12.9326 17.9151 13.0692C17.9717 13.2058 18.0009 13.3522 18.0009 13.5C18.0009 13.6478 17.9717 13.7942 17.9151 13.9308C17.8585 14.0674 17.7755 14.1915 17.6709 14.2959ZM23.875 0H14.875C14.5766 0 14.2905 0.118527 14.0795 0.329505C13.8685 0.540483 13.75 0.826631 13.75 1.125C13.75 1.42337 13.8685 1.70952 14.0795 1.92049C14.2905 2.13147 14.5766 2.25 14.875 2.25H22.75V24.75H14.875C14.5766 24.75 14.2905 24.8685 14.0795 25.0795C13.8685 25.2905 13.75 25.5766 13.75 25.875C13.75 26.1734 13.8685 26.4595 14.0795 26.6705C14.2905 26.8815 14.5766 27 14.875 27H23.875C24.1734 27 24.4595 26.8815 24.6705 26.6705C24.8815 26.4595 25 26.1734 25 25.875V1.125C25 0.826631 24.8815 0.540483 24.6705 0.329505C24.4595 0.118527 24.1734 0 23.875 0Z" fill="#6C6C6C"/>
</svg>
