<svg width="27" height="27" viewBox="0 0 27 27" fill="none" xmlns="http://www.w3.org/2000/svg">
<path d="M1 22.876C1 21.2184 1.65848 19.6287 2.83058 18.4566C4.00268 17.2845 5.5924 16.626 7.25 16.626H19.75C21.4076 16.626 22.9973 17.2845 24.1694 18.4566C25.3415 19.6287 26 21.2184 26 22.876C26 23.7048 25.6708 24.4996 25.0847 25.0857C24.4987 25.6717 23.7038 26.001 22.875 26.001H4.125C3.2962 26.001 2.50134 25.6717 1.91529 25.0857C1.32924 24.4996 1 23.7048 1 22.876Z" stroke="#6C6C6C" stroke-width="2" stroke-linejoin="round"/>
<path d="M13.5 10.375C16.0888 10.375 18.1875 8.27633 18.1875 5.6875C18.1875 3.09867 16.0888 1 13.5 1C10.9112 1 8.8125 3.09867 8.8125 5.6875C8.8125 8.27633 10.9112 10.375 13.5 10.375Z" stroke="#6C6C6C" stroke-width="2"/>
</svg>
