<svg width="50" height="51" viewBox="0 0 50 51" fill="none" xmlns="http://www.w3.org/2000/svg">
<circle cx="24.998" cy="25.5" r="25" fill="#2E2929"/>
<path d="M25.1935 24.166H33.7495V35.758C32.8525 36.241 31.7715 36.655 30.5065 37C29.2415 37.322 27.8845 37.483 26.4355 37.483C22.7785 37.483 20.03 36.31 18.19 33.964C16.373 31.595 15.4645 28.7315 15.4645 25.3735C15.4645 21.8085 16.4995 18.8645 18.5695 16.5415C20.6395 14.2185 23.4455 13.057 26.9875 13.057C27.6775 13.057 28.655 13.172 29.92 13.402C31.208 13.632 32.3695 14.023 33.4045 14.575L31.99 17.7835C30.978 17.4845 30.15 17.2545 29.506 17.0935C28.885 16.9095 28.0685 16.8175 27.0565 16.8175C24.9865 16.8175 23.3075 17.5305 22.0195 18.9565C20.7545 20.3595 20.122 22.487 20.122 25.339C20.122 27.915 20.6395 29.962 21.6745 31.48C22.7325 32.975 24.285 33.7225 26.332 33.7225C27.091 33.7225 27.7465 33.688 28.2985 33.619C28.8505 33.527 29.3335 33.435 29.7475 33.343V27.616H24.814L25.1935 24.166Z" fill="white"/>
</svg>
